<svg width="182" height="40" viewBox="0 0 182 40" fill="none" xmlns="http://www.w3.org/2000/svg">
<g clip-path="url(#clip0)">
<path opacity="0.3" d="M40.4938 20C40.4938 31.0457 31.5395 40 20.4938 40C9.44814 40 0.493835 31.0457 0.493835 20C0.493835 8.9543 9.44814 0 20.4938 0C31.5395 0 40.4938 8.9543 40.4938 20ZM7.32625 20C7.32625 27.2723 13.2216 33.1676 20.4938 33.1676C27.7661 33.1676 33.6614 27.2723 33.6614 20C33.6614 12.7277 27.7661 6.83241 20.4938 6.83241C13.2216 6.83241 7.32625 12.7277 7.32625 20Z" fill="#8672D3"/>
<path d="M20.3085 29.1345L9.86312 34.6263L11.8584 22.9945L3.40836 14.7577L15.0858 13.0619L20.3085 2.47943L25.5312 13.0619L37.2087 14.7577L28.7586 22.9945L30.754 34.6263L20.3085 29.1345Z" fill="#8672D3"/>
<path d="M53.0658 27.9424V13.33H47.335V10.0165H62.4905V13.33H56.7325V27.9424H53.0658Z" fill="white"/>
<path d="M72.9049 19.9572V27.9424H69.537V26.6387C68.4868 27.7251 67.1197 28.2683 65.4357 28.2683C64.0234 28.2683 62.8917 27.8971 62.0407 27.1547C61.2077 26.4124 60.7913 25.4436 60.7913 24.2486C60.7913 23.0354 61.244 22.0848 62.1493 21.3967C63.0728 20.6905 64.3131 20.3375 65.8703 20.3375H69.2382V19.7399C69.2382 18.9794 69.0209 18.4 68.5864 18.0017C68.1699 17.5852 67.5543 17.377 66.7394 17.377C66.0695 17.377 65.4629 17.5218 64.9197 17.8115C64.3765 18.1012 63.7971 18.572 63.1814 19.2239L61.2802 16.9696C62.8374 15.1226 64.7929 14.1992 67.1468 14.1992C68.9213 14.1992 70.3246 14.7062 71.3567 15.7202C72.3888 16.7161 72.9049 18.1284 72.9049 19.9572ZM69.2382 22.9177V22.7547H66.3592C65.1098 22.7547 64.4851 23.2074 64.4851 24.1128C64.4851 24.5654 64.6571 24.9276 65.0012 25.1992C65.3633 25.4527 65.8341 25.5794 66.4135 25.5794C67.2283 25.5794 67.8983 25.335 68.4234 24.8461C68.9666 24.3391 69.2382 23.6963 69.2382 22.9177Z" fill="white"/>
<path d="M87.4065 16.2091C88.6558 17.5309 89.2805 19.1967 89.2805 21.2066C89.2805 23.2165 88.6558 24.9004 87.4065 26.2584C86.1752 27.5984 84.627 28.2683 82.762 28.2683C81.0781 28.2683 79.7381 27.7251 78.7423 26.6387V32.8313H75.0756V14.4979H78.4435V16.1819C79.3669 14.8601 80.8064 14.1992 82.762 14.1992C84.627 14.1992 86.1752 14.8691 87.4065 16.2091ZM85.5595 21.2338C85.5595 20.1292 85.2336 19.2329 84.5818 18.5449C83.9299 17.8568 83.097 17.5128 82.083 17.5128C81.1052 17.5128 80.2904 17.8387 79.6385 18.4905C79.0048 19.1424 78.6879 20.0477 78.6879 21.2066C78.6879 22.3654 79.0048 23.2798 79.6385 23.9498C80.2904 24.6017 81.1052 24.9276 82.083 24.9276C83.0789 24.9276 83.9027 24.5835 84.5546 23.8955C85.2246 23.2074 85.5595 22.3202 85.5595 21.2338Z" fill="white"/>
<path d="M95.7965 27.9424V11.9177H89.4953V10.0165H104.243V11.9177H97.915V27.9424H95.7965Z" fill="white"/>
<path d="M102.719 21.3152C102.682 19.4321 103.352 17.8025 104.728 16.4263C106.123 15.0502 107.761 14.3803 109.645 14.4165C111.546 14.3803 113.184 15.0502 114.561 16.4263C115.937 17.8025 116.607 19.4321 116.57 21.3152C116.607 23.1803 115.928 24.8099 114.533 26.2041C113.139 27.5803 111.501 28.2502 109.617 28.214C107.734 28.2502 106.105 27.5803 104.728 26.2041C103.352 24.8099 102.682 23.1803 102.719 21.3152ZM114.425 21.3424C114.425 19.93 113.963 18.744 113.04 17.7844C112.134 16.8247 111.003 16.3449 109.645 16.3449C108.287 16.3449 107.146 16.8247 106.222 17.7844C105.317 18.7259 104.864 19.9119 104.864 21.3424C104.864 22.7366 105.317 23.9136 106.222 24.8733C107.146 25.8148 108.277 26.2856 109.617 26.2856C110.957 26.2856 112.089 25.8058 113.012 24.8461C113.954 23.8864 114.425 22.7185 114.425 21.3424Z" fill="white"/>
<path d="M139.938 10.0165H144.012L136.842 28.2683H135.647L130.649 17.0239L125.624 28.2683H124.429L117.259 10.0165H121.333L125.326 20.6091L130.024 9.69054H131.247L135.945 20.5547L139.938 10.0165Z" fill="white"/>
<path d="M142.779 21.2066C142.742 19.2873 143.44 17.6305 144.87 16.2362C146.3 14.842 148.003 14.163 149.976 14.1992C151.95 14.163 153.652 14.842 155.082 16.2362C156.531 17.6305 157.237 19.2873 157.201 21.2066C157.237 23.1259 156.531 24.7918 155.082 26.2041C153.634 27.5984 151.923 28.2774 149.949 28.2412C147.975 28.2774 146.273 27.5984 144.843 26.2041C143.43 24.7918 142.742 23.1259 142.779 21.2066ZM152.448 23.8412C153.118 23.1531 153.453 22.284 153.453 21.2338C153.453 20.1835 153.118 19.3054 152.448 18.5992C151.796 17.893 150.972 17.5399 149.976 17.5399C148.962 17.5399 148.129 17.893 147.477 18.5992C146.826 19.2872 146.5 20.1654 146.5 21.2338C146.5 22.284 146.826 23.1531 147.477 23.8412C148.129 24.5292 148.962 24.8733 149.976 24.8733C150.972 24.8733 151.796 24.5292 152.448 23.8412Z" fill="white"/>
<path d="M166.962 14.4979V17.73H165.985C164.862 17.73 163.975 18.0288 163.323 18.6263C162.689 19.2239 162.372 20.093 162.372 21.2338V27.9424H158.706V14.4979H162.073V16.1004C163.015 14.9235 164.246 14.335 165.767 14.335C166.22 14.335 166.618 14.3893 166.962 14.4979Z" fill="white"/>
<path d="M181.132 27.9424H176.949L171.544 20.5004V27.9424H167.877V7.57202H171.544V20.2288L176.379 14.4979H180.724L175.673 20.4461L181.132 27.9424Z" fill="white"/>
</g>
<defs>
<clipPath id="clip0">
<rect width="181.235" height="40" fill="white"/>
</clipPath>
</defs>
</svg>
